<?xml version="1.0" encoding="UTF-8"?>
<svg version="1.1" xmlns="http://www.w3.org/2000/svg" width="64" height="64">
<path d="M0 0 C21.12 0 42.24 0 64 0 C64 21.12 64 42.24 64 64 C42.88 64 21.76 64 0 64 C0 42.88 0 21.76 0 0 Z " fill="#020103" transform="translate(0,0)"/>
<path d="M0 0 C6.65952506 5.07048438 10.90071307 12.1274935 12.4453125 20.37890625 C12.62096575 23.55823008 12.40413178 25.50260704 10.375 28 C7.44617664 29.23318878 5.14711179 29.2145758 2 29 C1.71125 29.763125 1.4225 30.52625 1.125 31.3125 C0 34 0 34 -2 37 C4.16411455 36.63015313 6.80005946 35.29761357 11 31 C14.06996964 26.11595739 13.70842103 19.19600632 12.48828125 13.69140625 C12.32714844 13.13324219 12.16601562 12.57507812 12 12 C15.64638885 14.98340906 16.63130771 18.46766613 17.296875 23.0390625 C17.76065944 30.33078448 15.1122039 36.324047 10.42578125 41.859375 C5.36064856 46.62933678 -0.48389457 48.60195033 -7.3125 49.375 C-10.36444339 48.94914743 -11.75804313 48.06949865 -14 46 C-13.67 44.02 -13.34 42.04 -13 40 C-13.721875 40.12375 -14.44375 40.2475 -15.1875 40.375 C-18.45013736 39.93998169 -18.8041996 39.44438849 -20.8125 37 C-21.8953125 35.515 -21.8953125 35.515 -23 34 C-23.31326883 38.54239804 -23.42735216 41.1111075 -21.4375 45.25 C-17.59509618 49.5850197 -14.63601657 51.79545303 -8.87890625 52.2421875 C-5.90772495 52.24918675 -2.96558375 52.17530544 0 52 C-3.39329079 55.39329079 -6.71961184 55.18643061 -11.3125 55.25 C-16.33631624 55.20539342 -19.78252609 54.95223174 -24 52 C-24.86625 51.4225 -25.7325 50.845 -26.625 50.25 C-32.46679275 44.71567003 -35.02831582 36.88673672 -36.9375 29.25 C-37 26 -37 26 -35.4375 23.5625 C-32.38480006 21.60564106 -30.56500476 21.61249948 -27 22 C-26.34 22.33 -25.68 22.66 -25 23 C-24.938125 22.4225 -24.87625 21.845 -24.8125 21.25 C-23.58585685 17.85314204 -22.0845367 16.91241275 -19 15 C-15.36882436 13.452467 -11.95028113 12.30031377 -8 12 C-5.05708032 13.23557697 -4.08891908 14.45942275 -2 17 C-2 17.66 -2 18.32 -2 19 C-1.34 19 -0.68 19 0 19 C-0.73119256 12.73443614 -1.8169389 7.94683204 -6.3046875 3.33984375 C-11.42994416 -0.71076232 -17.81190201 -0.25257543 -24 0 C-23 -2 -23 -2 -21.30078125 -2.609375 C-13.96632666 -3.85461347 -6.47226471 -3.93412169 0 0 Z " fill="#A343F9" transform="translate(44,6)"/>
<path d="M0 0 C6.65952506 5.07048438 10.90071307 12.1274935 12.4453125 20.37890625 C12.62096575 23.55823008 12.40413178 25.50260704 10.375 28 C7.44617664 29.23318878 5.14711179 29.2145758 2 29 C1.7525 29.78375 1.505 30.5675 1.25 31.375 C0 34 0 34 -1.6875 35.3125 C-4.83356663 36.2478171 -7.73924509 36.12541365 -11 36 C-11 35.34 -11 34.68 -11 34 C-11.94875 33.79375 -12.8975 33.5875 -13.875 33.375 C-17 32 -17 32 -18.375 28.875 C-18.58125 27.92625 -18.7875 26.9775 -19 26 C-20.32 26.33 -21.64 26.66 -23 27 C-25 24 -25 24 -24.9375 21.5625 C-23.61663675 17.95214046 -22.31896159 16.99137696 -19 15 C-15.36646179 13.45699062 -11.95108987 12.30037525 -8 12 C-5.05708032 13.23557697 -4.08891908 14.45942275 -2 17 C-2 17.66 -2 18.32 -2 19 C-1.34 19 -0.68 19 0 19 C-0.73119256 12.73443614 -1.8169389 7.94683204 -6.3046875 3.33984375 C-11.42994416 -0.71076232 -17.81190201 -0.25257543 -24 0 C-23 -2 -23 -2 -21.30078125 -2.609375 C-13.96632666 -3.85461347 -6.47226471 -3.93412169 0 0 Z " fill="#F7B748" transform="translate(44,6)"/>
<path d="M0 0 C3.64638885 2.98340906 4.63130771 6.46766613 5.296875 11.0390625 C5.76065944 18.33078448 3.1122039 24.324047 -1.57421875 29.859375 C-6.63935144 34.62933678 -12.48389457 36.60195033 -19.3125 37.375 C-22.36444339 36.94914743 -23.75804313 36.06949865 -26 34 C-25.505 31.03 -25.505 31.03 -25 28 C-24.67 29.32 -24.34 30.64 -24 32 C-22.68 32 -21.36 32 -20 32 C-20.33 30.68 -20.66 29.36 -21 28 C-20.01 27.67 -19.02 27.34 -18 27 C-17.34 27.33 -16.68 27.66 -16 28 C-16 29.98 -16 31.96 -16 34 C-14.02 33.505 -14.02 33.505 -12 33 C-12.33 30.69 -12.66 28.38 -13 26 C-12.39671875 25.76925781 -11.7934375 25.53851563 -11.171875 25.30078125 C-6.23382078 23.28573654 -2.89247454 21.70027113 0 17 C0.97771193 14.0668642 1.13419011 12.11821006 1.125 9.0625 C1.12757812 8.20785156 1.13015625 7.35320313 1.1328125 6.47265625 C1.00930254 4.17319148 0.64420687 2.20359652 0 0 Z " fill="#F141D5" transform="translate(56,18)"/>
<path d="M0 0 C0.886875 0.4125 1.77375 0.825 2.6875 1.25 C2.6875 1.91 2.6875 2.57 2.6875 3.25 C3.450625 3.4975 4.21375 3.745 5 4 C8.00391051 5.39716768 9.17778209 6.31443741 10.6875 9.25 C10.60583317 12.51667311 9.87727831 13.99244372 7.9375 16.625 C5.6875 18.25 5.6875 18.25 3.125 18.1875 C0.52788233 17.18860859 -0.66519209 16.47386568 -2.3125 14.25 C-3 12.0625 -3 12.0625 -3.3125 10.25 C-4.6325 10.58 -5.9525 10.91 -7.3125 11.25 C-9.3125 8.25 -9.3125 8.25 -9.25 5.8125 C-7.51284344 1.06427206 -5.04896367 -1.14316159 0 0 Z " fill="#2E342A" transform="translate(28.3125,21.75)"/>
<path d="M0 0 C-0.66 0.66 -1.32 1.32 -2 2 C-2.24212873 3.98128508 -2.24212873 3.98128508 -2.125 6.125 C-2.08375 7.40375 -2.0425 8.6825 -2 10 C-2.66386719 10.15855469 -3.32773437 10.31710938 -4.01171875 10.48046875 C-10.42265058 12.1744522 -14.40559528 13.9632514 -18.1171875 19.73828125 C-19.31880878 22.81677117 -19.19083868 25.45806601 -19.125 28.75 C-19.10695313 29.92046875 -19.08890625 31.0909375 -19.0703125 32.296875 C-19.04710937 33.18890625 -19.02390625 34.0809375 -19 35 C-22.37316783 31.62683217 -22.19864547 27.87608927 -22.3125 23.25 C-22.23202681 16.63510396 -20.92175655 12.25480652 -16.4921875 7.3203125 C-12.80020304 3.86873633 -5.0810989 -2.54054945 0 0 Z " fill="#40E9CF" transform="translate(25,9)"/>
<path d="M0 0 C2.0831854 1.30943082 3.66089602 2.44665813 5.1875 4.375 C5.1875 5.035 5.1875 5.695 5.1875 6.375 C5.8475 6.705 6.5075 7.035 7.1875 7.375 C6.5275 7.375 5.8675 7.375 5.1875 7.375 C5.1875 9.025 5.1875 10.675 5.1875 12.375 C5.8475 12.375 6.5075 12.375 7.1875 12.375 C9.1875 15.375 9.1875 15.375 9 17.875 C8.10468056 20.62982904 7.45038777 21.61441243 5.1875 23.375 C2.92578125 23.66796875 2.92578125 23.66796875 0.5 23.5625 C-0.30824219 23.53542969 -1.11648437 23.50835937 -1.94921875 23.48046875 C-2.56410156 23.44566406 -3.17898437 23.41085938 -3.8125 23.375 C-2.8125 20.375 -2.8125 20.375 -1.3125 19 C0.75680031 16.75825799 1.1875 15.42947768 1.1875 12.375 C-1.02052268 9.66682272 -1.02052268 9.66682272 -3.8125 7.375 C-4.328125 6.818125 -4.84375 6.26125 -5.375 5.6875 C-7.04706517 4.1608318 -8.75478223 3.29742521 -10.8125 2.375 C-3.825 -0.85 -3.825 -0.85 0 0 Z " fill="#E26D1A" transform="translate(36.8125,18.625)"/>
<path d="M0 0 C0.99 0.33 1.98 0.66 3 1 C3.103125 1.639375 3.20625 2.27875 3.3125 2.9375 C3.539375 3.618125 3.76625 4.29875 4 5 C6.99615946 6.3045656 6.99615946 6.3045656 10 7 C10 7.66 10 8.32 10 9 C11.0725 8.7525 12.145 8.505 13.25 8.25 C17 8 17 8 19.4375 9.5625 C21.37169764 12.57984832 21.31991247 14.48096286 21 18 C19.68 18.33 18.36 18.66 17 19 C17 17.02 17 15.04 17 13 C15.68 13.33 14.36 13.66 13 14 C13 14.99 13 15.98 13 17 C11.68 17 10.36 17 9 17 C9 15.68 9 14.36 9 13 C7.6696875 13.185625 7.6696875 13.185625 6.3125 13.375 C3 13 3 13 0 10.4375 C-2 7 -2 7 -1.3125 3.125 C-0.879375 2.09375 -0.44625 1.0625 0 0 Z " fill="#796AFD" transform="translate(23,33)"/>
<path d="M0 0 C2.54791033 2.54791033 3.27573375 4.5489371 3.4375 8.0625 C3 12 3 12 1.375 14 C-1.65696965 15.2766188 -3.74003936 15.41616519 -7 15 C-8.6875 13.5 -8.6875 13.5 -10 12 C-10.99 12 -11.98 12 -13 12 C-12.34 10.02 -11.68 8.04 -11 6 C-10.34 6 -9.68 6 -9 6 C-8.855625 5.360625 -8.71125 4.72125 -8.5625 4.0625 C-8 2 -8 2 -7 1 C-4.67182036 0.63239269 -2.3381615 0.29758419 0 0 Z " fill="#EAA94E" transform="translate(53,20)"/>
<path d="M0 0 C3.5 0.4375 3.5 0.4375 5.4375 1.4375 C7.15894862 4.67787387 7.30241297 7.87122015 6.5 11.4375 C3.30434964 14.27807809 1.8252957 14.4375 -2.5 14.4375 C-2.5 13.7775 -2.5 13.1175 -2.5 12.4375 C-3.82 11.7775 -5.14 11.1175 -6.5 10.4375 C-6.71691118 7.25613606 -6.75066255 4.99780453 -5.4375 2.0625 C-3.5 0.4375 -3.5 0.4375 0 0 Z " fill="#023A30" transform="translate(28.5,6.5625)"/>
<path d="M0 0 C3.11052403 2.89687188 5.36138522 5.483282 5.7578125 9.828125 C5.69270833 11.78125 5.62760417 13.734375 5.5625 15.6875 C4.9025 15.6875 4.2425 15.6875 3.5625 15.6875 C2.21330468 14.03364767 0.88116272 12.365798 -0.4375 10.6875 C-1.4275 10.0275 -2.4175 9.3675 -3.4375 8.6875 C-3.87890625 6.8125 -3.87890625 6.8125 -4 4.6875 C-4.15589542 1.28171696 -4.15589542 1.28171696 -6.4375 -1.3125 C-12.03358536 -1.86113582 -15.52703041 -0.71762796 -20.4375 1.6875 C-21 -0.25 -21 -0.25 -21.4375 -2.3125 C-16.26198248 -7.48801752 -4.62063807 -3.90912677 0 0 Z " fill="#090805" transform="translate(38.4375,9.3125)"/>
<path d="M0 0 C-1.4165021 3.4232134 -3.06827149 4.82484659 -6 7 C-6.33 7.99 -6.66 8.98 -7 10 C-8.216875 9.87625 -9.43375 9.7525 -10.6875 9.625 C-13.34518579 9.59667653 -14.55872585 9.64153026 -16.64453125 11.3359375 C-18.18109406 13.16828609 -18.18109406 13.16828609 -20 16 C-20.75 14.4375 -20.75 14.4375 -21 12 C-18.60179667 6.62802454 -16.33942108 3.77239172 -11 1 C-7.09646174 -0.3629052 -4.05067816 -1.35022605 0 0 Z " fill="#061210" transform="translate(26,19)"/>
<path d="M0 0 C0.33 0 0.66 0 1 0 C1.57995227 10.86873508 1.57995227 10.86873508 -2 16 C-6.14979733 20.24411091 -9.07771837 21.6446631 -15 22 C-15 17.80286463 -13.70371887 16.17686967 -11 13 C-8.32833201 11.94170821 -5.85338955 11.51454566 -3 11 C-1.34623289 9.34623289 -1.36528792 7.19051636 -0.9375 4.9375 C-0.76089844 4.01839844 -0.58429687 3.09929688 -0.40234375 2.15234375 C-0.26957031 1.44207031 -0.13679688 0.73179688 0 0 Z " fill="#13080D" transform="translate(57,22)"/>
<path d="M0 0 C0.886875 0.4125 1.77375 0.825 2.6875 1.25 C2.6875 1.91 2.6875 2.57 2.6875 3.25 C3.3475 3.58 4.0075 3.91 4.6875 4.25 C3.73875 4.683125 2.79 5.11625 1.8125 5.5625 C-1.51291937 7.04302201 -1.51291937 7.04302201 -3.3125 10.25 C-5.4375 10.9375 -5.4375 10.9375 -7.3125 11.25 C-9.3125 8.25 -9.3125 8.25 -9.25 5.8125 C-7.51284344 1.06427206 -5.04896367 -1.14316159 0 0 Z " fill="#1AAD31" transform="translate(28.3125,21.75)"/>
<path d="M0 0 C0.99 0.33 1.98 0.66 3 1 C3.6875 3.0625 3.6875 3.0625 4 5 C4.928125 5.0928125 4.928125 5.0928125 5.875 5.1875 C8 6 8 6 9.25 8.5625 C9.4975 9.366875 9.745 10.17125 10 11 C8 13 8 13 5.6875 13.5 C2.37277479 12.88330694 0.84296545 11.4530746 -1.1953125 8.80078125 C-2 7 -2 7 -1.3125 3.125 C-0.879375 2.09375 -0.44625 1.0625 0 0 Z " fill="#0F91E6" transform="translate(23,33)"/>
<path d="M0 0 C2.6875 1.9375 2.6875 1.9375 5 4 C5.99 4.33 6.98 4.66 8 5 C7.01 5.495 7.01 5.495 6 6 C5.34444881 8.52733235 5.34444881 8.52733235 5 11 C4.34 11 3.68 11 3 11 C3 10.01 3 9.02 3 8 C2.34 8 1.68 8 1 8 C0.67 6.35 0.34 4.7 0 3 C-1.65 3.33 -3.3 3.66 -5 4 C-5.33 6.31 -5.66 8.62 -6 11 C-6.99 11 -7.98 11 -9 11 C-9.75 7.75 -9.75 7.75 -10 4 C-7.3353232 -0.15689581 -4.77391037 -0.77941394 0 0 Z " fill="#8E0BEA" transform="translate(17,28)"/>
<path d="M0 0 C3.14136538 2.57020804 4.05876859 5.09026955 5 9 C5.29022565 13.24455013 5.35239027 16.94282919 4 21 C1.78515625 22.421875 1.78515625 22.421875 -0.9375 23.75 C-1.83339844 24.19859375 -2.72929688 24.6471875 -3.65234375 25.109375 C-4.81443359 25.55023438 -4.81443359 25.55023438 -6 26 C-6.66 25.67 -7.32 25.34 -8 25 C-7.51789062 24.62488281 -7.03578125 24.24976562 -6.5390625 23.86328125 C-1.43842967 19.83662563 -1.43842967 19.83662563 1 14 C1.28273806 9.18559919 1.34556432 4.66103481 0 0 Z " fill="#D226DD" transform="translate(56,18)"/>
<path d="M0 0 C1.03125 -0.01417969 2.0625 -0.02835937 3.125 -0.04296875 C5.96545203 0.18473053 7.59107948 0.72245939 10 2.1875 C10 3.1775 10 4.1675 10 5.1875 C10.515625 6.1775 11.03125 7.1675 11.5625 8.1875 C13 11.1875 13 11.1875 12 14.1875 C11.443125 13.28 10.88625 12.3725 10.3125 11.4375 C7.64178951 7.68406904 5.53935352 4.73792453 0.85546875 3.72265625 C-3.08794726 3.24526095 -7.02771483 3.05936177 -11 3.1875 C-10 1.1875 -10 1.1875 -8.3125 0.57421875 C-5.51477249 0.10635553 -2.83681074 0.01773007 0 0 Z " fill="#D97836" transform="translate(31,2.8125)"/>
<path d="M0 0 C1.5625 1.1875 1.5625 1.1875 3 3 C2.86053579 5.7892842 2.44368959 7.42169252 0.73828125 9.64453125 C-1.53072424 11.41384564 -2.84740763 11.31098228 -5.6875 11.1875 C-6.89986328 11.14689453 -6.89986328 11.14689453 -8.13671875 11.10546875 C-8.75160156 11.07066406 -9.36648437 11.03585938 -10 11 C-8.98379995 7.95139986 -8.22608429 7.13333078 -6 5 C-5.67 4.34 -5.34 3.68 -5 3 C-3.35857037 1.9590934 -1.69287785 0.95495674 0 0 Z " fill="#E81214" transform="translate(43,31)"/>
<path d="M0 0 C0.556875 0.7425 1.11375 1.485 1.6875 2.25 C4.73350799 5.87227977 7.47727865 8.49242622 12 10 C14.06145107 10.068991 16.12501401 10.08467727 18.1875 10.0625 C19.27417969 10.05347656 20.36085938 10.04445313 21.48046875 10.03515625 C22.31191406 10.02355469 23.14335938 10.01195312 24 10 C20.60986723 13.39013277 17.16199358 13.23926012 12.5625 13.375 C11.42941406 13.42398438 10.29632813 13.47296875 9.12890625 13.5234375 C6 13 6 13 3.66796875 10.60546875 C1.10595735 6.60345094 0 4.86571839 0 0 Z " fill="#5E27E5" transform="translate(20,48)"/>
<path d="M0 0 C-0.7425 0.515625 -1.485 1.03125 -2.25 1.5625 C-6.67515251 5.48479427 -8.81357039 8.46692465 -9.24609375 14.34375 C-9.24960342 17.57264638 -9.17452272 20.77617751 -9 24 C-12.48358831 20.51641169 -12.1579871 16.70088249 -12.1875 11.9375 C-12.20167969 10.89464844 -12.21585938 9.85179687 -12.23046875 8.77734375 C-12 6 -12 6 -10 3 C-6.5455773 0.47920505 -4.272281 -0.36619551 0 0 Z " fill="#36DB9B" transform="translate(15,20)"/>
<path d="M0 0 C1.98 0 3.96 0 6 0 C8 4.75 8 4.75 8 7 C7.01 7.33 6.02 7.66 5 8 C4.34 8.66 3.68 9.32 3 10 C3 9.01 3 8.02 3 7 C1.68 7.33 0.36 7.66 -1 8 C-1.93065133 5.39417629 -2.14917407 4.35801776 -1.0625 1.75 C-0.711875 1.1725 -0.36125 0.595 0 0 Z " fill="#4D734D" transform="translate(29,28)"/>
<path d="M0 0 C2.0625 0.4375 2.0625 0.4375 4 1 C4 2.65 4 4.3 4 6 C2.68 6.33 1.36 6.66 0 7 C0 7.66 0 8.32 0 9 C0.99 9.33 1.98 9.66 3 10 C-3.75 9.25 -3.75 9.25 -6 7 C-5.625 3.875 -5.625 3.875 -5 1 C-4.67 2.32 -4.34 3.64 -4 5 C-2.68 5 -1.36 5 0 5 C-0.2784375 4.0409375 -0.2784375 4.0409375 -0.5625 3.0625 C-0.706875 2.381875 -0.85125 1.70125 -1 1 C-0.67 0.67 -0.34 0.34 0 0 Z " fill="#E75AC9" transform="translate(36,45)"/>
<path d="M0 0 C0.763125 0.20625 1.52625 0.4125 2.3125 0.625 C2.6425 2.275 2.9725 3.925 3.3125 5.625 C2.3225 5.955 1.3325 6.285 0.3125 6.625 C0.3125 7.945 0.3125 9.265 0.3125 10.625 C-1.0075 10.295 -2.3275 9.965 -3.6875 9.625 C-3.0275 9.625 -2.3675 9.625 -1.6875 9.625 C-1.6875 8.635 -1.6875 7.645 -1.6875 6.625 C-2.6775 6.955 -3.6675 7.285 -4.6875 7.625 C-5.0175 5.645 -5.3475 3.665 -5.6875 1.625 C-2.6875 -0.375 -2.6875 -0.375 0 0 Z " fill="#038F7A" transform="translate(29.6875,10.375)"/>
<path d="M0 0 C3.11997802 3.30350614 4 4.32409833 4 9 C0.73045798 8.43628586 -0.82575883 7.50037734 -3 5 C-3 5.66 -3 6.32 -3 7 C-3.66 7 -4.32 7 -5 7 C-5.33 6.34 -5.66 5.68 -6 5 C-8.01669827 3.86649466 -8.01669827 3.86649466 -10 3 C-8.70990357 2.49596232 -7.41786211 1.99690074 -6.125 1.5 C-5.04605469 1.08234375 -5.04605469 1.08234375 -3.9453125 0.65625 C-2 0 -2 0 0 0 Z " fill="#E6DE44" transform="translate(36,18)"/>
<path d="M0 0 C2.625 -0.1875 2.625 -0.1875 5 0 C6.125 4.75 6.125 4.75 5 7 C3.35 7 1.7 7 0 7 C-0.66 5.68 -1.32 4.36 -2 3 C-1.34 2.01 -0.68 1.02 0 0 Z " fill="#CFADFA" transform="translate(12,31)"/>
<path d="M0 0 C0.99 0.33 1.98 0.66 3 1 C3.6875 3.0625 3.6875 3.0625 4 5 C3.01 5 2.02 5 1 5 C1.474375 5.94875 1.94875 6.8975 2.4375 7.875 C3.29166667 9.58333333 4.14583333 11.29166667 5 13 C2.29672807 11.97462099 0.9960688 10.99528256 -0.875 8.75 C-2 6 -2 6 -1.1875 2.6875 C-0.795625 1.800625 -0.40375 0.91375 0 0 Z " fill="#1043BA" transform="translate(23,33)"/>
<path d="M0 0 C2.3125 -0.1875 2.3125 -0.1875 5 0 C6.625 1.4375 6.625 1.4375 8 3 C8.99 3.33 9.98 3.66 11 4 C10.01 4.495 10.01 4.495 9 5 C8.34444881 7.52733235 8.34444881 7.52733235 8 10 C7.34 10 6.68 10 6 10 C6 9.01 6 8.02 6 7 C5.34 7 4.68 7 4 7 C3.4375 5.0625 3.4375 5.0625 3 3 C3.33 2.67 3.66 2.34 4 2 C2.68 1.34 1.36 0.68 0 0 Z " fill="#726ADE" transform="translate(14,29)"/>
<path d="M0 0 C4.75 0.75 4.75 0.75 7 3 C7.55743243 8.23986486 7.55743243 8.23986486 5.625 10.875 C4 12 4 12 2 12 C2.57344937 9.13275314 2.8614515 8.1385485 5 6 C5 5.34 5 4.68 5 4 C2.525 3.01 2.525 3.01 0 2 C0 1.34 0 0.68 0 0 Z " fill="#000706" transform="translate(27,8)"/>
<path d="M0 0 C0 0.66 0 1.32 0 2 C-3.63 3.32 -7.26 4.64 -11 6 C-11.33 4.68 -11.66 3.36 -12 2 C-9.38538794 -0.61461206 -3.45000888 0 0 0 Z " fill="#22180F" transform="translate(29,5)"/>
<path d="M0 0 C-1.33332095 3.99996286 -3.4957827 4.83782337 -7 7 C-7.6875 5.1875 -7.6875 5.1875 -8 3 C-5.85915306 -0.33020635 -3.75910189 -0.30479204 0 0 Z " fill="#B8F430" transform="translate(27,25)"/>
<path d="M0 0 C0.99 0 1.98 0 3 0 C3 3.63 3 7.26 3 11 C2.67 11 2.34 11 2 11 C1.67 9.02 1.34 7.04 1 5 C0.67 5.33 0.34 5.66 0 6 C-1.66617115 6.04063832 -3.33388095 6.042721 -5 6 C-3.68 5.67 -2.36 5.34 -1 5 C-0.67 3.35 -0.34 1.7 0 0 Z " fill="#871AE5" transform="translate(17,36)"/>
<path d="M0 0 C0.33 0.66 0.66 1.32 1 2 C-0.125 4.5625 -0.125 4.5625 -2 7 C-4.6875 7.8125 -4.6875 7.8125 -7 8 C-7 6.35 -7 4.7 -7 3 C-5.02 3 -3.04 3 -1 3 C-0.67 2.01 -0.34 1.02 0 0 Z " fill="#392D27" transform="translate(38,32)"/>
<path d="M0 0 C1.65 0 3.3 0 5 0 C5.33 1.32 5.66 2.64 6 4 C5.01 4.495 5.01 4.495 4 5 C3.01 4.67 2.02 4.34 1 4 C0.67 4.66 0.34 5.32 0 6 C-1.125 2.25 -1.125 2.25 0 0 Z " fill="#F7DDB8" transform="translate(47,25)"/>
<path d="M0 0 C2.0625 0.4375 2.0625 0.4375 4 1 C4 2.65 4 4.3 4 6 C2.68 6.33 1.36 6.66 0 7 C-0.38133299 5.0085944 -0.71325582 3.00720923 -1 1 C-0.67 0.67 -0.34 0.34 0 0 Z " fill="#D7B9FD" transform="translate(36,45)"/>
<path d="M0 0 C0.99 0.33 1.98 0.66 3 1 C3 2.98 3 4.96 3 7 C1.68 7 0.36 7 -1 7 C-1.625 4.625 -1.625 4.625 -2 2 C-1.34 1.34 -0.68 0.68 0 0 Z " fill="#8F27F8" transform="translate(33,43)"/>
<path d="M0 0 C1.65 0 3.3 0 5 0 C5 1.65 5 3.3 5 5 C4.67 4.34 4.34 3.68 4 3 C3.34 3 2.68 3 2 3 C2 3.66 2 4.32 2 5 C0.68 5.33 -0.64 5.66 -2 6 C-1.34 4.02 -0.68 2.04 0 0 Z " fill="#8D9F4B" transform="translate(29,28)"/>
<path d="M0 0 C0.66 0.33 1.32 0.66 2 1 C2.59355614 3.64860427 2.74209269 6.29197322 3 9 C1.68 8.67 0.36 8.34 -1 8 C-0.34 8 0.32 8 1 8 C1 7.01 1 6.02 1 5 C0.01 5.33 -0.98 5.66 -2 6 C-2.33 5.01 -2.66 4.02 -3 3 C-2.01 2.67 -1.02 2.34 0 2 C0 1.34 0 0.68 0 0 Z " fill="#0C6C59" transform="translate(27,12)"/>
<path d="M0 0 C0.33 1.32 0.66 2.64 1 4 C2.32 4.33 3.64 4.66 5 5 C5 6.32 5 7.64 5 9 C3.125 8.75 3.125 8.75 1 8 C-0.3125 6.1875 -0.3125 6.1875 -1 4 C-0.625 1.75 -0.625 1.75 0 0 Z " fill="#25282C" transform="translate(26,30)"/>
<path d="M0 0 C0.66 0 1.32 0 2 0 C2 0.66 2 1.32 2 2 C5.465 1.505 5.465 1.505 9 1 C9.66 1.99 10.32 2.98 11 4 C9.741875 4.04125 8.48375 4.0825 7.1875 4.125 C6.47980469 4.14820313 5.77210937 4.17140625 5.04296875 4.1953125 C3 4 3 4 0 2 C0 1.34 0 0.68 0 0 Z " fill="#81B2D7" transform="translate(31,40)"/>
<path d="M0 0 C1.32 0.33 2.64 0.66 4 1 C3.67 2.65 3.34 4.3 3 6 C1.35 6 -0.3 6 -2 6 C-2.33 5.34 -2.66 4.68 -3 4 C-1.68 3.67 -0.36 3.34 1 3 C0.67 2.01 0.34 1.02 0 0 Z " fill="#F0E9FD" transform="translate(14,32)"/>
<path d="M0 0 C1.98 0 3.96 0 6 0 C6.66 1.32 7.32 2.64 8 4 C5.36 4 2.72 4 0 4 C0 2.68 0 1.36 0 0 Z " fill="#4F32F4" transform="translate(11,28)"/>
<path d="M0 0 C3.16115776 1.36983503 3.9927092 1.9890638 6 5 C6.99 5.66 7.98 6.32 9 7 C6.1875 6.875 6.1875 6.875 3 6 C1.125 2.9375 1.125 2.9375 0 0 Z " fill="#F07511" transform="translate(31,21)"/>
<path d="M0 0 C1.65 0.33 3.3 0.66 5 1 C5 1.99 5 2.98 5 4 C3.02 4 1.04 4 -1 4 C-0.67 2.68 -0.34 1.36 0 0 Z " fill="#BE2EF2" transform="translate(11,37)"/>
<path d="M0 0 C-1.75 2.0625 -1.75 2.0625 -4 4 C-6.25 3.75 -6.25 3.75 -8 3 C-8 2.34 -8 1.68 -8 1 C-5.07175348 0.02391783 -3.04386724 -0.08226668 0 0 Z " fill="#D544E3" transform="translate(44,51)"/>
<path d="M0 0 C2.97 0.495 2.97 0.495 6 1 C6.33 2.32 6.66 3.64 7 5 C4.69 4.01 2.38 3.02 0 2 C0 1.34 0 0.68 0 0 Z " fill="#1489FF" transform="translate(36,43)"/>
<path d="M0 0 C0.99 0.33 1.98 0.66 3 1 C3 1.66 3 2.32 3 3 C2.05125 3.309375 1.1025 3.61875 0.125 3.9375 C-2.86080408 4.87394742 -2.86080408 4.87394742 -5 6 C-3.63016497 2.83884224 -3.0109362 2.0072908 0 0 Z " fill="#17A823" transform="translate(24,22)"/>
</svg>
