<svg width="1184" height="810" viewBox="0 0 1184 810" fill="none" xmlns="http://www.w3.org/2000/svg">
<g clip-path="url(#clip0_2673_28108)">
<g clip-path="url(#clip1_2673_28108)">
<g clip-path="url(#clip2_2673_28108)">
<path d="M1182 201.095L201.095 1182H202.158L1182 202.158V201.095Z" fill="#EBEBEB"/>
<path d="M1182 186.431L186.432 1182H187.484L1182 187.484V186.431Z" fill="#EBEBEB"/>
<path d="M1182 193.758L193.758 1182H194.821L1182 194.821V193.758Z" fill="#EBEBEB"/>
<path d="M1182 237.76L237.76 1182H238.823L1182 238.822V237.76Z" fill="#EBEBEB"/>
<path d="M1182 171.758L171.758 1182H172.82L1182 172.82V171.758Z" fill="#EBEBEB"/>
<path d="M1182 223.096L223.096 1182H224.149L1182 224.148V223.096Z" fill="#EBEBEB"/>
<path d="M1182 230.424L230.423 1182H231.486L1182 231.486V230.424Z" fill="#EBEBEB"/>
<path d="M1182 164.43L164.431 1182H165.493L1182 165.492V164.43Z" fill="#EBEBEB"/>
<path d="M1182 215.76L215.759 1182H216.822L1182 216.822V215.76Z" fill="#EBEBEB"/>
<path d="M1182 208.423L208.422 1182H209.485L1182 209.485V208.423Z" fill="#EBEBEB"/>
<path d="M1182 179.095L179.095 1182H180.157L1182 180.157V179.095Z" fill="#EBEBEB"/>
<path d="M1182 113.092L113.102 1182H114.154L1182 114.154V113.092Z" fill="#EBEBEB"/>
<path d="M1182 105.765L105.765 1182H106.827L1182 106.827V105.765Z" fill="#EBEBEB"/>
<path d="M1182 120.429L120.429 1182H121.492L1182 121.491V120.429Z" fill="#EBEBEB"/>
<path d="M1182 98.428L98.4277 1182H99.49L1182 99.4903V98.428Z" fill="#EBEBEB"/>
<path d="M1182 135.093L135.093 1182H136.155L1182 136.155V135.093Z" fill="#EBEBEB"/>
<path d="M1182 127.766L127.766 1182H128.828L1182 128.828V127.766Z" fill="#EBEBEB"/>
<path d="M1182 142.43L142.43 1182H143.492L1182 143.492V142.43Z" fill="#EBEBEB"/>
<path d="M1182 149.757L149.767 1182H150.819L1182 150.819V149.757Z" fill="#EBEBEB"/>
<path d="M1182 157.094L157.094 1182H158.156L1182 158.156V157.094Z" fill="#EBEBEB"/>
<path d="M1182 281.762L281.752 1182H282.814L1182 282.814V281.762Z" fill="#EBEBEB"/>
<path d="M1182 340.418L340.417 1182H341.48L1182 341.48V340.418Z" fill="#EBEBEB"/>
<path d="M1182 391.756L391.756 1182H392.809L1182 392.809V391.756Z" fill="#EBEBEB"/>
<path d="M1182 333.091L333.09 1182H334.153L1182 334.153V333.091Z" fill="#EBEBEB"/>
<path d="M1182 325.754L325.753 1182H326.816L1182 326.816V325.754Z" fill="#EBEBEB"/>
<path d="M1182 355.092L355.091 1182H356.144L1182 356.144V355.092Z" fill="#EBEBEB"/>
<path d="M1182 362.418L362.418 1182H363.481L1182 363.481V362.418Z" fill="#EBEBEB"/>
<path d="M1182 384.419L384.419 1182H385.482L1182 385.482V384.419Z" fill="#EBEBEB"/>
<path d="M1182 377.083L377.083 1182H378.145L1182 378.145V377.083Z" fill="#EBEBEB"/>
<path d="M1182 369.755L369.755 1182H370.818L1182 370.818V369.755Z" fill="#EBEBEB"/>
<path d="M1182 318.427L318.427 1182H319.479L1182 319.479V318.427Z" fill="#EBEBEB"/>
<path d="M1182 259.761L259.761 1182H260.814L1182 260.814V259.761Z" fill="#EBEBEB"/>
<path d="M1182 245.087L245.097 1182H246.15L1182 246.149V245.087Z" fill="#EBEBEB"/>
<path d="M1182 274.425L274.425 1182H275.487L1182 275.487V274.425Z" fill="#EBEBEB"/>
<path d="M1182 267.088L267.088 1182H268.15L1182 268.151V267.088Z" fill="#EBEBEB"/>
<path d="M1182 311.09L311.09 1182H312.152L1182 312.152V311.09Z" fill="#EBEBEB"/>
<path d="M1182 252.424L252.424 1182H253.487L1182 253.486V252.424Z" fill="#EBEBEB"/>
<path d="M1182 303.753L303.753 1182H304.815L1182 304.815V303.753Z" fill="#EBEBEB"/>
<path d="M1182 296.426L296.426 1182H297.488L1182 297.488V296.426Z" fill="#EBEBEB"/>
<path d="M1182 289.089L289.089 1182H290.151L1182 290.151V289.089Z" fill="#EBEBEB"/>
<path d="M1182 91.1011L91.1011 1182H92.1634L1182 92.1535V91.1011Z" fill="#EBEBEB"/>
<path d="M1182 347.754L347.754 1182H348.817L1182 348.817V347.754Z" fill="#EBEBEB"/>
<path d="M1067.78 0L0 1067.78V1068.84L1068.84 0H1067.78Z" fill="#EBEBEB"/>
<path d="M1075.1 0L0 1075.1V1076.17L1076.17 0H1075.1Z" fill="#EBEBEB"/>
<path d="M1082.44 0L0 1082.44V1083.5L1083.5 0H1082.44Z" fill="#EBEBEB"/>
<path d="M1053.11 0L0 1053.1V1054.16L1054.16 0H1053.11Z" fill="#EBEBEB"/>
<path d="M1060.44 0L0 1060.44V1061.5L1061.5 0H1060.44Z" fill="#EBEBEB"/>
<path d="M1182 83.7642L83.7642 1182H84.8265L1182 84.8265V83.7642Z" fill="#EBEBEB"/>
<path d="M1104.44 0L0 1104.44V1105.5L1105.5 0H1104.44Z" fill="#EBEBEB"/>
<path d="M1089.78 0L0 1089.78V1090.83L1090.83 0H1089.78Z" fill="#EBEBEB"/>
<path d="M1111.77 0L0 1111.77V1112.83L1112.83 0H1111.77Z" fill="#EBEBEB"/>
<path d="M1045.78 0L0 1045.78V1046.84L1046.84 0H1045.78Z" fill="#EBEBEB"/>
<path d="M1001.77 0L0 1001.77V1002.84L1002.84 0H1001.77Z" fill="#EBEBEB"/>
<path d="M1038.44 0L0 1038.44V1039.5L1039.5 0H1038.44Z" fill="#EBEBEB"/>
<path d="M987.11 0L0 987.11V988.172L988.172 0H987.11Z" fill="#EBEBEB"/>
<path d="M979.773 0L0 979.773V980.835L980.835 0H979.773Z" fill="#EBEBEB"/>
<path d="M1119.1 0L0 1119.1V1120.17L1120.17 0H1119.1Z" fill="#EBEBEB"/>
<path d="M994.447 0L0 994.447V995.499L995.499 0H994.447Z" fill="#EBEBEB"/>
<path d="M1023.77 0L0 1023.77V1024.84L1024.84 0H1023.77Z" fill="#EBEBEB"/>
<path d="M1031.11 0L0 1031.11V1032.16L1032.17 0H1031.11Z" fill="#EBEBEB"/>
<path d="M1009.11 0L0 1009.11V1010.17L1010.17 0H1009.11Z" fill="#EBEBEB"/>
<path d="M1016.44 0L0 1016.44V1017.5L1017.5 0H1016.44Z" fill="#EBEBEB"/>
<path d="M1097.1 0L0 1097.1V1098.17L1098.17 0H1097.1Z" fill="#EBEBEB"/>
<path d="M1182 17.7715L17.7715 1182H18.8239L1182 18.8239V17.7715Z" fill="#EBEBEB"/>
<path d="M1182 47.0996L47.0991 1182H48.1614L1182 48.1619V47.0996Z" fill="#EBEBEB"/>
<path d="M1182 32.4355L32.4351 1182H33.4974L1182 33.4979V32.4355Z" fill="#EBEBEB"/>
<path d="M1182 25.0986L25.0986 1182H26.1609L1182 26.1609V25.0986Z" fill="#EBEBEB"/>
<path d="M1182 39.7622L39.7622 1182H40.8245L1182 40.8245V39.7622Z" fill="#EBEBEB"/>
<path d="M1182 76.4272L76.4272 1182H77.4896L1182 77.4896V76.4272Z" fill="#EBEBEB"/>
<path d="M1182 54.4365L54.4365 1182H55.4889L1182 55.4889V54.4365Z" fill="#EBEBEB"/>
<path d="M1182 69.1001L69.1001 1182H70.1624L1182 70.1624V69.1001Z" fill="#EBEBEB"/>
<path d="M1182 61.7632L61.7632 1182H62.8255L1182 62.8255V61.7632Z" fill="#EBEBEB"/>
<path d="M1148.43 0L0 1148.43V1149.5L1149.5 0H1148.43Z" fill="#EBEBEB"/>
<path d="M1155.77 0L0 1155.77V1156.83L1156.83 0H1155.77Z" fill="#EBEBEB"/>
<path d="M1126.44 0L0 1126.44V1127.49L1127.49 0H1126.44Z" fill="#EBEBEB"/>
<path d="M1141.11 0L0 1141.11V1142.17L1142.17 0H1141.11Z" fill="#EBEBEB"/>
<path d="M1133.77 0L0 1133.77V1134.83L1134.83 0H1133.77Z" fill="#EBEBEB"/>
<path d="M1170.43 0L0 1170.43V1171.5L1171.5 0H1170.43Z" fill="#EBEBEB"/>
<path d="M1163.11 0L0 1163.11V1164.17L1164.17 0H1163.11Z" fill="#EBEBEB"/>
<path d="M1182 3.09741L3.09766 1182H4.15997L1182 4.15973V3.09741Z" fill="#EBEBEB"/>
<path d="M972.446 0L0 972.446V973.508L973.508 0H972.446Z" fill="#EBEBEB"/>
<path d="M1182 10.4343L10.4346 1182H11.4969L1182 11.4966V10.4343Z" fill="#EBEBEB"/>
<path d="M1177.77 0L0 1177.77V1178.83L1178.83 0H1177.77Z" fill="#EBEBEB"/>
<path d="M795.069 1182H796.131L1182 796.131V795.069L795.069 1182Z" fill="#EBEBEB"/>
<path d="M809.733 1182H810.795L1182 810.795V809.733L809.733 1182Z" fill="#EBEBEB"/>
<path d="M787.742 1182H788.794L1182 788.794V787.732L787.742 1182Z" fill="#EBEBEB"/>
<path d="M802.406 1182H803.458L1182 803.458V802.406L802.406 1182Z" fill="#EBEBEB"/>
<path d="M780.405 1182H781.467L1182 781.467V780.405L780.405 1182Z" fill="#EBEBEB"/>
<path d="M714.402 1182H715.465L1182 715.465V714.402L714.402 1182Z" fill="#EBEBEB"/>
<path d="M677.737 1182H678.8L1182 678.8V677.738L677.737 1182Z" fill="#EBEBEB"/>
<path d="M670.411 1182H671.473L1182 671.473V670.41L670.411 1182Z" fill="#EBEBEB"/>
<path d="M685.075 1182H686.137L1182 686.137V685.074L685.075 1182Z" fill="#EBEBEB"/>
<path d="M692.412 1182H693.464L1182 693.464V692.411L692.412 1182Z" fill="#EBEBEB"/>
<path d="M648.41 1182H649.472L1182 649.472V648.409L648.41 1182Z" fill="#EBEBEB"/>
<path d="M641.073 1182H642.135L1182 642.135V641.073L641.073 1182Z" fill="#EBEBEB"/>
<path d="M699.738 1182H700.801L1182 700.801V699.738L699.738 1182Z" fill="#EBEBEB"/>
<path d="M663.074 1182H664.136L1182 664.136V663.074L663.074 1182Z" fill="#EBEBEB"/>
<path d="M655.747 1182H656.799L1182 656.799V655.747L655.747 1182Z" fill="#EBEBEB"/>
<path d="M707.075 1182H708.138L1182 708.138V707.075L707.075 1182Z" fill="#EBEBEB"/>
<path d="M758.404 1182H759.467L1182 759.467V758.404L758.404 1182Z" fill="#EBEBEB"/>
<path d="M773.068 1182H774.13L1182 774.13V773.068L773.068 1182Z" fill="#EBEBEB"/>
<path d="M743.74 1182H744.803L1182 744.802V743.74L743.74 1182Z" fill="#EBEBEB"/>
<path d="M1182 399.083L399.083 1182H400.145L1182 400.145V399.083Z" fill="#EBEBEB"/>
<path d="M751.067 1182H752.13L1182 752.13V751.067L751.067 1182Z" fill="#EBEBEB"/>
<path d="M721.739 1182H722.802L1182 722.802V721.739L721.739 1182Z" fill="#EBEBEB"/>
<path d="M736.403 1182H737.466L1182 737.466V736.403L736.403 1182Z" fill="#EBEBEB"/>
<path d="M729.076 1182H730.129L1182 730.129V729.076L729.076 1182Z" fill="#EBEBEB"/>
<path d="M765.741 1182H766.794L1182 766.793V765.741L765.741 1182Z" fill="#EBEBEB"/>
<path d="M1182 501.75L501.75 1182H502.813L1182 502.813V501.75Z" fill="#EBEBEB"/>
<path d="M1182 494.414L494.414 1182H495.476L1182 495.476V494.414Z" fill="#EBEBEB"/>
<path d="M1182 479.75L479.75 1182H480.812L1182 480.812V479.75Z" fill="#EBEBEB"/>
<path d="M1182 487.077L487.077 1182H488.139L1182 488.139V487.077Z" fill="#EBEBEB"/>
<path d="M1182 538.416L538.416 1182H539.478L1182 539.478V538.416Z" fill="#EBEBEB"/>
<path d="M1182 545.742L545.742 1182H546.805L1182 546.805V545.742Z" fill="#EBEBEB"/>
<path d="M1182 516.415L516.415 1182H517.477L1182 517.477V516.415Z" fill="#EBEBEB"/>
<path d="M1182 531.078L531.079 1182H532.141L1182 532.14V531.078Z" fill="#EBEBEB"/>
<path d="M1182 523.751L523.751 1182H524.804L1182 524.803V523.751Z" fill="#EBEBEB"/>
<path d="M1182 472.413L472.413 1182H473.475L1182 473.475V472.413Z" fill="#EBEBEB"/>
<path d="M1182 413.757L413.747 1182H414.809L1182 414.809V413.757Z" fill="#EBEBEB"/>
<path d="M1182 465.086L465.086 1182H466.138L1182 466.138V465.086Z" fill="#EBEBEB"/>
<path d="M1182 421.084L421.084 1182H422.146L1182 422.146V421.084Z" fill="#EBEBEB"/>
<path d="M1182 406.42L406.42 1182H407.483L1182 407.482V406.42Z" fill="#EBEBEB"/>
<path d="M1182 428.421L428.421 1182H429.483L1182 429.473V428.421Z" fill="#EBEBEB"/>
<path d="M1182 457.749L457.749 1182H458.811L1182 458.811V457.749Z" fill="#EBEBEB"/>
<path d="M1182 435.748L435.748 1182H436.81L1182 436.81V435.748Z" fill="#EBEBEB"/>
<path d="M1182 450.412L450.412 1182H451.474L1182 451.474V450.412Z" fill="#EBEBEB"/>
<path d="M1182 443.085L443.085 1182H444.147L1182 444.147V443.085Z" fill="#EBEBEB"/>
<path d="M1182 509.078L509.078 1182H510.14L1182 510.14V509.078Z" fill="#EBEBEB"/>
<path d="M1182 560.416L560.416 1182H561.468L1182 561.469V560.416Z" fill="#EBEBEB"/>
<path d="M1182 553.079L553.079 1182H554.141L1182 554.142V553.079Z" fill="#EBEBEB"/>
<path d="M627.789 0L0 627.789V628.851L628.851 0H627.789Z" fill="#EBEBEB"/>
<path d="M152.209 0H151.147L0 151.147V152.209L152.209 0Z" fill="#EBEBEB"/>
<path d="M159.536 0H158.474L0 158.474V159.536L159.536 0Z" fill="#EBEBEB"/>
<path d="M144.872 0H143.81L0 143.81V144.872L144.872 0Z" fill="#EBEBEB"/>
<path d="M203.538 0H202.475L0 202.475V203.538L203.538 0Z" fill="#EBEBEB"/>
<path d="M137.535 0H136.473L0 136.473V137.535L137.535 0Z" fill="#EBEBEB"/>
<path d="M181.537 0H180.475L0 180.475V181.537L181.537 0Z" fill="#EBEBEB"/>
<path d="M196.201 0H195.138L0 195.138V196.201L196.201 0Z" fill="#EBEBEB"/>
<path d="M188.874 0H187.811L0 187.811V188.874L188.874 0Z" fill="#EBEBEB"/>
<path d="M130.208 0H129.146L0 129.146V130.208L130.208 0Z" fill="#EBEBEB"/>
<path d="M174.2 0H173.148L0 173.138V174.2L174.2 0Z" fill="#EBEBEB"/>
<path d="M166.873 0H165.811L0 165.811V166.873L166.873 0Z" fill="#EBEBEB"/>
<path d="M71.5425 0H70.4802L0 70.4802V71.5425L71.5425 0Z" fill="#EBEBEB"/>
<path d="M86.2064 0H85.1441L0 85.1441V86.2064L86.2064 0Z" fill="#EBEBEB"/>
<path d="M56.8786 0H55.8163L0 55.8163V56.8786L56.8786 0Z" fill="#EBEBEB"/>
<path d="M64.2056 0H63.1432L0 63.1432V64.2056L64.2056 0Z" fill="#EBEBEB"/>
<path d="M93.5434 0H92.481L0 92.481V93.5434L93.5434 0Z" fill="#EBEBEB"/>
<path d="M108.207 0H107.145L0 107.145V108.207L108.207 0Z" fill="#EBEBEB"/>
<path d="M122.871 0H121.809L0 121.809V122.871L122.871 0Z" fill="#EBEBEB"/>
<path d="M115.534 0H114.482L0 114.482V115.534L115.534 0Z" fill="#EBEBEB"/>
<path d="M100.87 0H99.808L0 99.808V100.87L100.87 0Z" fill="#EBEBEB"/>
<path d="M78.8695 0H77.8171L0 77.8171V78.8695L78.8695 0Z" fill="#EBEBEB"/>
<path d="M313.532 0H312.47L0 312.47V313.532L313.532 0Z" fill="#EBEBEB"/>
<path d="M320.859 0H319.807L0 319.807V320.869L320.859 0Z" fill="#EBEBEB"/>
<path d="M306.195 0H305.133L0 305.133V306.195L306.195 0Z" fill="#EBEBEB"/>
<path d="M291.531 0H290.469L0 290.469V291.531L291.531 0Z" fill="#EBEBEB"/>
<path d="M298.868 0H297.806L0 297.806V298.868L298.868 0Z" fill="#EBEBEB"/>
<path d="M328.196 0H327.134L0 327.134V328.196L328.196 0Z" fill="#EBEBEB"/>
<path d="M284.204 0H283.142L0 283.142V284.204L284.204 0Z" fill="#EBEBEB"/>
<path d="M342.86 0H341.798L0 341.807V342.86L342.86 0Z" fill="#EBEBEB"/>
<path d="M350.197 0H349.135L0 349.135V350.197L350.197 0Z" fill="#EBEBEB"/>
<path d="M335.533 0H334.471L0 334.471V335.533L335.533 0Z" fill="#EBEBEB"/>
<path d="M276.867 0H275.805L0 275.805V276.867L276.867 0Z" fill="#EBEBEB"/>
<path d="M232.866 0H231.803L0 231.803V232.866L232.866 0Z" fill="#EBEBEB"/>
<path d="M225.539 0H224.476L0 224.476V225.539L225.539 0Z" fill="#EBEBEB"/>
<path d="M240.202 0H239.14L0 239.14V240.202L240.202 0Z" fill="#EBEBEB"/>
<path d="M218.202 0H217.139L0 217.139V218.202L218.202 0Z" fill="#EBEBEB"/>
<path d="M269.53 0H268.468L0 268.468V269.53L269.53 0Z" fill="#EBEBEB"/>
<path d="M247.529 0H246.477L0 246.477V247.529L247.529 0Z" fill="#EBEBEB"/>
<path d="M210.865 0H209.812L0 209.812V210.865L210.865 0Z" fill="#EBEBEB"/>
<path d="M262.203 0H261.141L0 261.141V262.203L262.203 0Z" fill="#EBEBEB"/>
<path d="M254.866 0H253.804L0 253.804V254.866L254.866 0Z" fill="#EBEBEB"/>
<path d="M12.8769 0H11.8145L0 11.8145V12.8769L12.8769 0Z" fill="#EBEBEB"/>
<path d="M5.53993 0H4.48754L0 4.48754V5.53993L5.53993 0Z" fill="#EBEBEB"/>
<path d="M49.5416 0H48.4793L0 48.4793V49.5416L49.5416 0Z" fill="#EBEBEB"/>
<path d="M357.534 0H356.471L0 356.471V357.534L357.534 0Z" fill="#EBEBEB"/>
<path d="M34.8777 0H33.8154L0 33.8154V34.8777L34.8777 0Z" fill="#EBEBEB"/>
<path d="M42.2047 0H41.1523L0 41.1523V42.2047L42.2047 0Z" fill="#EBEBEB"/>
<path d="M27.5408 0H26.4785L0 26.4785V27.5408L27.5408 0Z" fill="#EBEBEB"/>
<path d="M20.2138 0H19.1515L0 19.1515V20.2138L20.2138 0Z" fill="#EBEBEB"/>
<path d="M847.787 0L0 847.787V848.84L848.84 0H847.787Z" fill="#EBEBEB"/>
<path d="M767.121 0L0 767.121V768.183L768.183 0H767.121Z" fill="#EBEBEB"/>
<path d="M774.448 0L0 774.448V775.51L775.51 0H774.448Z" fill="#EBEBEB"/>
<path d="M752.457 0L0 752.457V753.51L753.51 0H752.457Z" fill="#EBEBEB"/>
<path d="M781.785 0L0 781.785V782.847L782.847 0H781.785Z" fill="#EBEBEB"/>
<path d="M759.784 0L0 759.784V760.846L760.846 0H759.784Z" fill="#EBEBEB"/>
<path d="M811.113 0L0 811.113V812.175L812.175 0H811.113Z" fill="#EBEBEB"/>
<path d="M745.12 0L0 745.12V746.182L746.182 0H745.12Z" fill="#EBEBEB"/>
<path d="M789.122 0L0 789.122V790.174L790.174 0H789.122Z" fill="#EBEBEB"/>
<path d="M803.786 0L0 803.786V804.848L804.848 0H803.786Z" fill="#EBEBEB"/>
<path d="M796.449 0L0 796.449V797.511L797.511 0H796.449Z" fill="#EBEBEB"/>
<path d="M693.791 0L0 693.791V694.854L694.854 0H693.791Z" fill="#EBEBEB"/>
<path d="M364.861 0H363.798L0 363.798V364.861L364.861 0Z" fill="#EBEBEB"/>
<path d="M686.455 0L0 686.455V687.517L687.517 0H686.455Z" fill="#EBEBEB"/>
<path d="M701.118 0L0 701.118V702.181L702.181 0H701.118Z" fill="#EBEBEB"/>
<path d="M671.791 0L0 671.791V672.853L672.853 0H671.791Z" fill="#EBEBEB"/>
<path d="M730.456 0L0 730.456V731.519L731.519 0H730.456Z" fill="#EBEBEB"/>
<path d="M708.455 0L0 708.455V709.518L709.518 0H708.455Z" fill="#EBEBEB"/>
<path d="M723.119 0L0 723.119V724.182L724.182 0H723.119Z" fill="#EBEBEB"/>
<path d="M737.783 0L0 737.783V738.846L738.846 0H737.783Z" fill="#EBEBEB"/>
<path d="M715.792 0L0 715.792V716.845L716.845 0H715.792Z" fill="#EBEBEB"/>
<path d="M679.118 0L0 679.118V680.18L680.18 0H679.118Z" fill="#EBEBEB"/>
<path d="M928.444 0L0 928.444V929.506L929.506 0H928.444Z" fill="#EBEBEB"/>
<path d="M913.78 0L0 913.78V914.842L914.842 0H913.78Z" fill="#EBEBEB"/>
<path d="M921.117 0L0 921.117V922.169L922.169 0H921.117Z" fill="#EBEBEB"/>
<path d="M906.443 0L0 906.443V907.506L907.506 0H906.443Z" fill="#EBEBEB"/>
<path d="M943.108 0L0 943.108V944.17L944.17 0H943.108Z" fill="#EBEBEB"/>
<path d="M950.445 0L0 950.445V951.507L951.507 0H950.445Z" fill="#EBEBEB"/>
<path d="M957.782 0L0 957.782V958.844L958.834 0H957.782Z" fill="#EBEBEB"/>
<path d="M899.116 0L0 899.116V900.178L900.178 0H899.116Z" fill="#EBEBEB"/>
<path d="M935.781 0L0 935.781V936.843L936.843 0H935.781Z" fill="#EBEBEB"/>
<path d="M825.787 0L0 825.787V826.839L826.849 0H825.787Z" fill="#EBEBEB"/>
<path d="M840.451 0L0 840.451V841.513L841.513 0H840.451Z" fill="#EBEBEB"/>
<path d="M965.109 0L0 965.109V966.171L966.171 0H965.109Z" fill="#EBEBEB"/>
<path d="M833.114 0L0 833.114V834.176L834.176 0H833.114Z" fill="#EBEBEB"/>
<path d="M855.115 0L0 855.115V856.177L856.177 0H855.115Z" fill="#EBEBEB"/>
<path d="M869.778 0L0 869.778V870.841L870.841 0H869.778Z" fill="#EBEBEB"/>
<path d="M877.115 0L0 877.115V878.178L878.178 0H877.115Z" fill="#EBEBEB"/>
<path d="M884.442 0L0 884.452V885.505L885.505 0H884.442Z" fill="#EBEBEB"/>
<path d="M862.451 0L0 862.451V863.514L863.514 0H862.451Z" fill="#EBEBEB"/>
<path d="M891.779 0L0 891.779V892.842L892.842 0H891.779Z" fill="#EBEBEB"/>
<path d="M818.45 0L0 818.45V819.512L819.512 0H818.45Z" fill="#EBEBEB"/>
<path d="M467.528 0H466.466L0 466.466V467.528L467.528 0Z" fill="#EBEBEB"/>
<path d="M460.191 0H459.129L0 459.129V460.191L460.191 0Z" fill="#EBEBEB"/>
<path d="M445.527 0H444.465L0 444.465V445.527L445.527 0Z" fill="#EBEBEB"/>
<path d="M452.854 0H451.802L0 451.802V452.854L452.854 0Z" fill="#EBEBEB"/>
<path d="M474.855 0H473.793L0 473.793V474.855L474.855 0Z" fill="#EBEBEB"/>
<path d="M482.192 0H481.13L0 481.13V482.192L482.192 0Z" fill="#EBEBEB"/>
<path d="M504.193 0H503.131L0 503.131V504.193L504.193 0Z" fill="#EBEBEB"/>
<path d="M496.856 0H495.794L0 495.794V496.856L496.856 0Z" fill="#EBEBEB"/>
<path d="M438.19 0H437.128L0 437.128V438.19L438.19 0Z" fill="#EBEBEB"/>
<path d="M489.529 0H488.467L0 488.467V489.519L489.529 0Z" fill="#EBEBEB"/>
<path d="M416.189 0H415.137L0 415.137V416.189L416.189 0Z" fill="#EBEBEB"/>
<path d="M379.525 0H378.472L0 378.472V379.525L379.525 0Z" fill="#EBEBEB"/>
<path d="M664.454 0L0 664.454V665.516L665.516 0H664.454Z" fill="#EBEBEB"/>
<path d="M372.198 0H371.135L0 371.135V372.198L372.198 0Z" fill="#EBEBEB"/>
<path d="M430.863 0H429.801L0 429.801V430.863L430.863 0Z" fill="#EBEBEB"/>
<path d="M394.199 0H393.136L0 393.136V394.199L394.199 0Z" fill="#EBEBEB"/>
<path d="M511.52 0H510.467L0 510.458V511.52L511.52 0Z" fill="#EBEBEB"/>
<path d="M401.526 0H400.463L0 400.463V401.526L401.526 0Z" fill="#EBEBEB"/>
<path d="M423.526 0H422.464L0 422.464V423.526L423.526 0Z" fill="#EBEBEB"/>
<path d="M408.862 0H407.8L0 407.8V408.862L408.862 0Z" fill="#EBEBEB"/>
<path d="M386.862 0H385.799L0 385.799V386.862L386.862 0Z" fill="#EBEBEB"/>
<path d="M620.462 0L0 620.462V621.514L621.514 0H620.462Z" fill="#EBEBEB"/>
<path d="M613.125 0L0 613.125V614.187L614.187 0H613.125Z" fill="#EBEBEB"/>
<path d="M599.523 0H598.461L0 598.461V599.523L599.523 0Z" fill="#EBEBEB"/>
<path d="M592.186 0H591.124L0 591.124V592.186L592.186 0Z" fill="#EBEBEB"/>
<path d="M633.746 1182H634.808L1182 634.808V633.746L633.746 1182Z" fill="#EBEBEB"/>
<path d="M657.127 0L0 657.127V658.179L658.179 0H657.127Z" fill="#EBEBEB"/>
<path d="M649.79 0L0 649.79V650.852L650.852 0H649.79Z" fill="#EBEBEB"/>
<path d="M642.453 0L0 642.463V643.515L643.515 0H642.453Z" fill="#EBEBEB"/>
<path d="M518.857 0H517.794L0 517.794V518.857L518.857 0Z" fill="#EBEBEB"/>
<path d="M635.126 0L0 635.126V636.188L636.188 0H635.126Z" fill="#EBEBEB"/>
<path d="M533.521 0H532.458L0 532.458V533.521L533.521 0Z" fill="#EBEBEB"/>
<path d="M584.849 0H583.797L0 583.797V584.849L584.849 0Z" fill="#EBEBEB"/>
<path d="M540.858 0H539.795L0 539.795V540.858L540.858 0Z" fill="#EBEBEB"/>
<path d="M526.194 0H525.131L0 525.131V526.194L526.194 0Z" fill="#EBEBEB"/>
<path d="M548.185 0H547.132L0 547.132V548.185L548.185 0Z" fill="#EBEBEB"/>
<path d="M577.522 0H576.46L0 576.46V577.522L577.522 0Z" fill="#EBEBEB"/>
<path d="M555.522 0H554.459L0 554.459V555.522L555.522 0Z" fill="#EBEBEB"/>
<path d="M570.186 0H569.123L0 569.123V570.186L570.186 0Z" fill="#EBEBEB"/>
<path d="M562.859 0H561.796L0 561.796V562.859L562.859 0Z" fill="#EBEBEB"/>
<path d="M611.745 1182H612.807L1182 612.807V611.745L611.745 1182Z" fill="#EBEBEB"/>
<path d="M597.081 1182H598.133L1182 598.133V597.081L597.081 1182Z" fill="#EBEBEB"/>
<path d="M604.408 1182H605.47L1182 605.47V604.408L604.408 1182Z" fill="#EBEBEB"/>
<path d="M619.072 1182H620.134L1182 620.134V619.072L619.072 1182Z" fill="#EBEBEB"/>
<path d="M589.744 1182H590.806L1182 590.806V589.744L589.744 1182Z" fill="#EBEBEB"/>
<path d="M0 605.788V606.85L606.85 0H605.788L0 605.788Z" fill="#EBEBEB"/>
<path d="M567.743 1182H568.805L1182 568.806V567.743L567.743 1182Z" fill="#EBEBEB"/>
<path d="M582.407 1182H583.47L1182 583.469V582.407L582.407 1182Z" fill="#EBEBEB"/>
<path d="M575.08 1182H576.142L1182 576.143V575.08L575.08 1182Z" fill="#EBEBEB"/>
<path d="M626.409 1182H627.472L1182 627.472V626.409L626.409 1182Z" fill="#EBEBEB"/>
</g>
</g>
</g>
<defs>
<clipPath id="clip0_2673_28108">
<rect width="1184" height="810" fill="white"/>
</clipPath>
<clipPath id="clip1_2673_28108">
<rect width="1182" height="1182" fill="white"/>
</clipPath>
<clipPath id="clip2_2673_28108">
<rect width="1182" height="1182" fill="white"/>
</clipPath>
</defs>
</svg>
